<mxfile host="app.diagrams.net" modified="2023-09-02T00:40:25.301Z" agent="Mozilla/5.0 (Macintosh; Intel Mac OS X 10_15_7) AppleWebKit/537.36 (KHTML, like Gecko) Chrome/116.0.0.0 Safari/537.36" etag="rbrsAm8t9ue-Htd8bDA2" version="21.7.1" type="github">
  <diagram name="Page-1" id="kltpETyp6ktUoRGK4CSb">
    <mxGraphModel dx="1140" dy="672" grid="1" gridSize="10" guides="1" tooltips="1" connect="1" arrows="1" fold="1" page="1" pageScale="1" pageWidth="827" pageHeight="1169" math="0" shadow="0">
      <root>
        <mxCell id="0" />
        <mxCell id="1" parent="0" />
        <mxCell id="0TEFw3Sj944juoJ_6vrW-2" style="edgeStyle=orthogonalEdgeStyle;rounded=0;sketch=1;hachureGap=4;jiggle=2;curveFitting=1;orthogonalLoop=1;jettySize=auto;html=1;exitX=1;exitY=0.5;exitDx=0;exitDy=0;entryX=0;entryY=0.5;entryDx=0;entryDy=0;fontFamily=Architects Daughter;fontSource=https%3A%2F%2Ffonts.googleapis.com%2Fcss%3Ffamily%3DArchitects%2BDaughter;fontSize=16;" edge="1" parent="1" source="0TEFw3Sj944juoJ_6vrW-3" target="0TEFw3Sj944juoJ_6vrW-4">
          <mxGeometry relative="1" as="geometry" />
        </mxCell>
        <mxCell id="0TEFw3Sj944juoJ_6vrW-3" value="&lt;font face=&quot;Comic Sans MS&quot;&gt;.js&lt;/font&gt;" style="text;html=1;strokeColor=none;fillColor=none;align=center;verticalAlign=middle;whiteSpace=wrap;rounded=0;fontSize=20;fontFamily=Architects Daughter;" vertex="1" parent="1">
          <mxGeometry x="190" y="180" width="60" height="30" as="geometry" />
        </mxCell>
        <mxCell id="0TEFw3Sj944juoJ_6vrW-4" value="&lt;font face=&quot;Comic Sans MS&quot;&gt;compiled.js&lt;/font&gt;" style="text;html=1;strokeColor=none;fillColor=none;align=center;verticalAlign=middle;whiteSpace=wrap;rounded=0;fontSize=20;fontFamily=Architects Daughter;" vertex="1" parent="1">
          <mxGeometry x="570" y="180" width="130" height="30" as="geometry" />
        </mxCell>
        <mxCell id="0TEFw3Sj944juoJ_6vrW-5" style="edgeStyle=orthogonalEdgeStyle;rounded=0;sketch=1;hachureGap=4;jiggle=2;curveFitting=1;orthogonalLoop=1;jettySize=auto;html=1;exitX=1;exitY=0.5;exitDx=0;exitDy=0;entryX=0.5;entryY=1;entryDx=0;entryDy=0;fontFamily=Architects Daughter;fontSource=https%3A%2F%2Ffonts.googleapis.com%2Fcss%3Ffamily%3DArchitects%2BDaughter;fontSize=16;" edge="1" parent="1" source="0TEFw3Sj944juoJ_6vrW-7" target="0TEFw3Sj944juoJ_6vrW-4">
          <mxGeometry relative="1" as="geometry" />
        </mxCell>
        <mxCell id="0TEFw3Sj944juoJ_6vrW-6" value="&lt;font face=&quot;Comic Sans MS&quot;&gt;&lt;font color=&quot;#00cc00&quot;&gt;transformTsPlugin&lt;/font&gt;&lt;br&gt;&lt;font color=&quot;#ff8000&quot;&gt;sucrase.transform&lt;/font&gt;&lt;br&gt;&lt;/font&gt;" style="edgeLabel;html=1;align=center;verticalAlign=middle;resizable=0;points=[];fontSize=20;fontFamily=Architects Daughter;" vertex="1" connectable="0" parent="0TEFw3Sj944juoJ_6vrW-5">
          <mxGeometry x="-0.1229" y="-1" relative="1" as="geometry">
            <mxPoint x="-13" y="-1" as="offset" />
          </mxGeometry>
        </mxCell>
        <mxCell id="0TEFw3Sj944juoJ_6vrW-7" value="&lt;font face=&quot;Comic Sans MS&quot;&gt;.ts&lt;/font&gt;" style="text;html=1;strokeColor=none;fillColor=none;align=center;verticalAlign=middle;whiteSpace=wrap;rounded=0;fontSize=20;fontFamily=Architects Daughter;" vertex="1" parent="1">
          <mxGeometry x="165" y="250" width="110" height="30" as="geometry" />
        </mxCell>
        <mxCell id="0TEFw3Sj944juoJ_6vrW-8" style="edgeStyle=orthogonalEdgeStyle;rounded=0;sketch=1;hachureGap=4;jiggle=2;curveFitting=1;orthogonalLoop=1;jettySize=auto;html=1;exitX=1;exitY=0.5;exitDx=0;exitDy=0;entryX=0.5;entryY=1;entryDx=0;entryDy=0;fontFamily=Architects Daughter;fontSource=https%3A%2F%2Ffonts.googleapis.com%2Fcss%3Ffamily%3DArchitects%2BDaughter;fontSize=16;" edge="1" parent="1" source="0TEFw3Sj944juoJ_6vrW-10" target="0TEFw3Sj944juoJ_6vrW-4">
          <mxGeometry relative="1" as="geometry" />
        </mxCell>
        <mxCell id="0TEFw3Sj944juoJ_6vrW-9" value="&lt;font face=&quot;Comic Sans MS&quot;&gt;&lt;font color=&quot;#00cc00&quot;&gt;transformJsxPlugin&lt;/font&gt;&lt;br&gt;&lt;font color=&quot;#ff8000&quot;&gt;sucrase.transform&lt;/font&gt;&lt;br&gt;&lt;/font&gt;" style="edgeLabel;html=1;align=center;verticalAlign=middle;resizable=0;points=[];fontSize=20;fontFamily=Architects Daughter;" vertex="1" connectable="0" parent="0TEFw3Sj944juoJ_6vrW-8">
          <mxGeometry x="-0.2431" relative="1" as="geometry">
            <mxPoint as="offset" />
          </mxGeometry>
        </mxCell>
        <mxCell id="0TEFw3Sj944juoJ_6vrW-10" value="&lt;font face=&quot;Comic Sans MS&quot;&gt;.jsx/.tsx&lt;/font&gt;" style="text;html=1;strokeColor=none;fillColor=none;align=center;verticalAlign=middle;whiteSpace=wrap;rounded=0;fontSize=20;fontFamily=Architects Daughter;" vertex="1" parent="1">
          <mxGeometry x="180" y="320" width="80" height="30" as="geometry" />
        </mxCell>
      </root>
    </mxGraphModel>
  </diagram>
</mxfile>
